<?xml version="1.0" encoding="iso-8859-1"?>
<!-- Uploaded to: SVG Repo, www.svgrepo.com, Generator: SVG Repo Mixer Tools -->
<svg version="1.1" id="Layer_1" xmlns="http://www.w3.org/2000/svg" xmlns:xlink="http://www.w3.org/1999/xlink" 
	 viewBox="0 0 512 512" xml:space="preserve">
<polygon style="fill:#FFFFFF;" points="480.001,428 40,428 40,180 256,83.999 264,83.999 480.001,180 "/>
<polygon style="fill:#FBB049;" points="376,188 376,164 264,116 256,116 144,164 144,188 "/>
<rect x="39.999" y="371.999" style="fill:#7B7B53;" width="39.999" height="56"/>
<polygon style="fill:#FA9C1C;" points="256,116 264,116 376,164 376,188 320,188 "/>
<rect x="440.002" y="371.999" style="fill:#7B7B53;" width="39.999" height="56"/>
<g>
	<rect x="79.999" y="371.999" style="fill:#5A5A28;" width="64.001" height="56"/>
	<rect x="377.005" y="371.999" style="fill:#5A5A28;" width="64.001" height="56"/>
</g>
<polyline style="fill:#FBB049;" points="376,428 376,268 264,220 256,220 144,268 144,428 376,428 "/>
<polyline style="fill:#FA9C1C;" points="256,220 264,220 376,268 376,428 "/>
<polygon style="fill:#5A5A28;" points="47.837,196.001 32.163,196.001 32.163,175.157 52.495,164.991 59.505,179.009 
	47.837,184.843 "/>
<polygon style="fill:#1D1D1B;" points="444.679,171.621 428.777,164.187 262.37,91.836 257.631,91.836 91.223,164.187 
	75.321,171.621 68.684,157.42 84.877,149.856 254.369,76.163 265.63,76.163 435.317,149.943 451.317,157.42 "/>
<polygon style="fill:#5A5A28;" points="487.837,196.001 472.164,196.001 472.164,184.843 460.496,179.009 467.505,164.991 
	487.837,175.157 "/>
<path style="fill:#1D1D1B;" d="M265.608,108.163h-11.217l-118.228,50.669v37.005h247.674v-37.005L265.608,108.163z M328.163,152.024
	v28.138h-32.326V138.17L328.163,152.024z M257.609,123.837h4.783l17.772,7.616v48.71h-40.326v-48.71L257.609,123.837z
	 M224.163,180.163h-32.326v-28.138l32.326-13.854V180.163z M151.837,169.167l24.327-10.425v21.422h-24.327V169.167z
	 M368.164,180.163h-24.327v-21.422l24.327,10.425V180.163z"/>
<g>
	<rect x="104.167" y="292.001" style="fill:#FBB049;" width="15.674" height="72.001"/>
	<rect x="400.16" y="292.001" style="fill:#FBB049;" width="15.674" height="72.001"/>
</g>
<path style="fill:#1D1D1B;" d="M487.837,420.164V204h-15.674v216.163h-24.327v-160h-70.229l-112-48.001h-11.217l-112,48.001H72.163
	v160H47.837V204H32.163v216.163H0v15.674h512v-15.674H487.837z M136.164,420.164H87.837V275.837h48.326V420.164z M200.163,420.164
	h-8.326v-16.327h8.326V420.164z M304.163,420.164h-88.326v-16.327h88.326V420.164z M304.163,388.163h-88.326v-8.327h88.326V388.163z
	 M336.163,420.164h-16.327v-16.327h16.327V420.164z M368.164,420.164h-16.327v-16.327H360v-15.674h-40.163v-8.327H344v-15.674H176
	v15.674h24.163v8.327h-8.326V388h-15.674v0.163h-16.164v15.674h16.164v16.327h-24.327V273.167l105.772-45.331h4.783l105.772,45.331
	V420.164z M432.163,420.164h-48.326V275.837h48.326V420.164z"/>
</svg>