<?xml version="1.0" ?>
<!-- Uploaded to: SVG Repo, www.svgrepo.com, Generator: SVG Repo Mixer Tools -->
<svg width="800px" height="800px" viewBox="0 0 64 64" xmlns="http://www.w3.org/2000/svg">
<defs>
<style>.cls-1{fill:#f6e782;}.cls-2{fill:#e5936b;}.cls-3{fill:#f0f4f7;}.cls-4{fill:#617880;}.cls-5{fill:#f5d96d;}.cls-6{fill:#748a95;}</style>
</defs>
<g id="Tent">
<path class="cls-1" d="M22,29.84l-2.1,1a4.9,4.9,0,0,0-2.65,3.31L13.85,48.86,31.34,51l18.81-2.1L46.79,34.17a4.9,4.9,0,0,0-2.65-3.31L34,26l-6.66,4.88Z" id="rect50443-2"/>
<path class="cls-2" d="M36.82,48.86l3-5.21-7.23-2H32l-7.23,2,3,5.21Z" id="path51671-2"/>
<path class="cls-3" d="M41.23,33.92a1.5,1.5,0,0,1,1.51,1.51V38.3a1.51,1.51,0,0,1-3,0V35.43A1.51,1.51,0,0,1,41.23,33.92Z" id="rect56161-0"/>
<path class="cls-4" d="M32,41.6l4.22,7.26-4.46,1.32-4-1.32Z" id="rect51317-3"/>
<path class="cls-5" d="M34,26l-1.35,1,8.12,3.91a4.87,4.87,0,0,1,2.65,3.31l3.36,14.67h3.37L46.79,34.17a4.9,4.9,0,0,0-2.65-3.31Z" id="path61940"/>
<path class="cls-6" d="M9.7,48.86H54.3a1.7,1.7,0,0,1,0,3.4H9.7a1.7,1.7,0,1,1,0-3.4Z" id="rect51073-9"/>
<path class="cls-4" d="M49,48.86a1.71,1.71,0,0,1,0,3.41h5.3a1.71,1.71,0,0,0,0-3.41Z" id="path58640"/>
<path class="cls-3" d="M32,25.52A4.61,4.61,0,0,0,30,26l-8,3.86v7.32a2,2,0,1,0,4,0V35.47a2,2,0,1,1,4,0,2,2,0,0,0,4,0V26A4.61,4.61,0,0,0,32,25.52Z" id="rect53585-7"/>
<path d="M51.77,24.31l.31.18a1,1,0,0,0,1.36-.37,1,1,0,0,0-.36-1.37l-.31-.17a1,1,0,1,0-1,1.73Z"/>
<path d="M47.23,21.69l.3.17A.93.93,0,0,0,48,22a1,1,0,0,0,.5-1.87l-.3-.17a1,1,0,0,0-1.37.36A1,1,0,0,0,47.23,21.69Z"/>
<path d="M46.86,24.12a1,1,0,0,0,1.37.37l.3-.18A1,1,0,0,0,48.9,23a1,1,0,0,0-1.37-.37l-.3.17A1,1,0,0,0,46.86,24.12Z"/>
<path d="M52.27,22a1,1,0,0,0,.5-.13l.31-.18a1,1,0,0,0,.36-1.37A1,1,0,0,0,52.08,20l-.31.17a1,1,0,0,0,.5,1.87Z"/>
<path d="M49.15,25a1,1,0,1,0,2,0v-.35a1,1,0,1,0-2,0Z"/>
<path d="M50.15,20.78a1,1,0,0,0,1-1v-.36a1,1,0,1,0-2,0v.36A1,1,0,0,0,50.15,20.78Z"/>
<path d="M19.63,18.91l.3.17a1,1,0,0,0,.5.14,1,1,0,0,0,.5-1.87l-.3-.18a1,1,0,1,0-1,1.74Z"/>
<path d="M15.39,16.46a1,1,0,0,0,.5.13,1,1,0,0,0,.5-1.86l-.3-.18a1,1,0,0,0-1,1.73Z"/>
<path d="M14.72,18.71a1,1,0,0,0,.87.51,1,1,0,0,0,.49-.14l.31-.17a1,1,0,0,0-1-1.74l-.3.18A1,1,0,0,0,14.72,18.71Z"/>
<path d="M20.13,16.59a1,1,0,0,0,.5-.13l.3-.18a1,1,0,1,0-1-1.73l-.3.18a1,1,0,0,0,.5,1.86Z"/>
<path d="M17,19.62a1,1,0,0,0,2,0v-.36a1,1,0,0,0-2,0Z"/>
<path d="M18,15.37a1,1,0,0,0,1-1V14a1,1,0,0,0-2,0v.35A1,1,0,0,0,18,15.37Z"/>
<circle cx="32.76" cy="12.98" r="1.25"/>
<circle cx="39.23" cy="20.17" r="1.25"/>
<path d="M54.47,47.88,57,39A1,1,0,1,0,55,38.41l-.24.83L48,35.05l-.25-1.11a5.85,5.85,0,0,0-3.19-4L34.38,25.06a5.56,5.56,0,0,0-4.81,0L19.43,30a5.85,5.85,0,0,0-3.19,4L16,35.05,9.2,39.24,9,38.41A1,1,0,1,0,7,39l2.49,8.93a2.69,2.69,0,0,0,.17,5.38H54.3a2.69,2.69,0,0,0,.17-5.38Zm-.23-6.63L52.4,47.86H51L48.64,37.78Zm-8.43-6.86L48.9,47.86H38.55l2.15-3.71a1,1,0,0,0,.06-.88,1,1,0,0,0-.66-.58l-7.1-2V38.29a3,3,0,0,0,2-2.82v-7.9l8.71,4.19A3.86,3.86,0,0,1,45.81,34.39Zm-9.29,13L34,43l4.33,1.23ZM26.28,44.26l3.61-1-2.1,3.63ZM32,43.59l2.48,4.27h-5ZM30.43,26.88a3.63,3.63,0,0,1,2.57-.2v8.79a1,1,0,0,1-2,0,3,3,0,1,0-6,0v1.69a1,1,0,1,1-2,0V30.47ZM20.29,31.76l.67-.33v5.73a3,3,0,0,0,6,0V35.47a1,1,0,1,1,2,0,3,3,0,0,0,2,2.82v2.56l-6.5,1.84a1,1,0,0,0-.59,1.46l2.14,3.71h-11l3.09-13.47A3.86,3.86,0,0,1,20.29,31.76Zm-4.93,6L13.05,47.86H11.6L9.76,41.25ZM54.3,51.26H9.7a.7.7,0,0,1,0-1.4H54.3a.7.7,0,1,1,0,1.4Z"/>
<path d="M41.23,40.81a2.51,2.51,0,0,0,2.51-2.51V35.43a2.51,2.51,0,0,0-5,0V38.3A2.51,2.51,0,0,0,41.23,40.81Zm-.51-5.38a.51.51,0,0,1,.51-.51.5.5,0,0,1,.51.51V38.3a.5.5,0,0,1-.51.51.51.51,0,0,1-.51-.51Z"/>
</g>
</svg>